<?xml version="1.0" encoding="UTF-8"?>
<svg id="Layer_2" data-name="Layer 2" xmlns="http://www.w3.org/2000/svg" viewBox="0 0 659.49 438.51">
  <defs>
    <style>
      .cls-1 {
        fill: #0539f5;
      }

      .cls-2 {
        fill: #1b1b1b;
      }
    </style>
  </defs>
  <g id="Layer_1-2" data-name="Layer 1">
    <g>
      <path class="cls-2" d="M239.8,331.33c-6.46-3.53-13.7-5.29-21.71-5.29s-15.54,1.79-21.95,5.37c-6.41,3.58-11.46,8.41-15.14,14.5-3.68,6.09-5.53,12.92-5.53,20.51s1.87,14.63,5.61,20.83c3.74,6.2,8.81,11.11,15.22,14.74,6.41,3.63,13.67,5.45,21.79,5.45s15.38-1.82,21.79-5.45c6.41-3.63,11.48-8.52,15.22-14.66,3.74-6.14,5.61-13.11,5.61-20.91s-1.87-14.44-5.61-20.59c-3.74-6.14-8.84-10.97-15.3-14.5ZM233.39,376.27c-1.44,2.83-3.5,4.99-6.17,6.49-2.67,1.5-5.71,2.24-9.13,2.24s-6.46-.75-9.13-2.24c-2.67-1.49-4.75-3.66-6.25-6.49-1.5-2.83-2.25-6.06-2.25-9.69,0-3.42.75-6.51,2.25-9.29,1.49-2.78,3.58-4.94,6.25-6.49,2.67-1.55,5.71-2.32,9.13-2.32s6.43.78,9.05,2.32c2.61,1.55,4.67,3.68,6.17,6.41,1.5,2.72,2.24,5.85,2.24,9.37s-.72,6.86-2.16,9.69Z"/>
      <path class="cls-2" d="M67.97,347.99c-3.1-2.66-6.54-4.83-10.33-6.48-3.79-1.67-7.58-3.14-11.37-4.42s-7.26-2.56-10.4-3.83c-3.16-1.28-5.7-2.82-7.63-4.57-1.91-1.75-2.88-4.03-2.88-6.8,0-3.1,1.28-5.48,3.86-7.13,2.56-1.67,6.02-2.49,10.4-2.49s8.15.84,11.61,2.56c3.49,1.71,6.93,4.33,10.33,7.86l8.9-23.07c-2.6-1.78-5.46-3.31-8.58-4.66-6.52-2.77-13.78-4.16-21.77-4.16s-14.58,1.32-20.67,3.92c-6.09,2.62-10.83,6.43-14.19,11.46-3.36,5.03-5.05,11.05-5.05,18.11,0,5.65.98,10.4,2.88,14.26,1.93,3.83,4.46,7,7.63,9.45,3.14,2.45,6.61,4.55,10.4,6.24,3.79,1.71,7.56,3.18,11.31,4.42,3.73,1.21,7.19,2.53,10.4,3.92,3.21,1.39,5.74,3.03,7.6,4.96,1.89,1.93,2.82,4.38,2.82,7.37,0,3.42-1.47,6.13-4.4,8.1-2.95,1.97-7.04,2.97-12.26,2.97-5.87,0-11.03-1.15-15.47-3.44-4.42-2.3-8.45-5.55-12.09-9.71l-9.01,23.38c3.42,2.79,7.04,5.03,10.85,6.74,6.67,2.99,14.71,4.48,24.11,4.48,13.67,0,24.35-3.06,32.04-9.21,7.69-6.13,11.53-14.6,11.53-25.39,0-5.98-.98-10.94-2.97-14.91-1.97-3.94-4.51-7.26-7.6-9.92Z"/>
      <path class="cls-2" d="M151.04,331.49c-5.71-3.52-12.2-5.29-19.47-5.29-5.23,0-10.04,1.07-14.42,3.2-2.24,1.09-4.27,2.39-6.09,3.89v-5.49h-24.67v110.71h24.35v-38.16c1.85,1.51,3.93,2.8,6.25,3.88,4.38,2.03,9.24,3.04,14.58,3.04,7.26,0,13.78-1.79,19.55-5.37,5.77-3.58,10.28-8.38,13.54-14.42,3.26-6.03,4.89-12.95,4.89-20.75s-1.66-14.74-4.97-20.83c-3.31-6.09-7.82-10.89-13.54-14.42ZM142.23,376.19c-1.55,2.78-3.63,4.94-6.25,6.49-2.62,1.55-5.63,2.32-9.05,2.32s-6.28-.77-8.89-2.32c-2.62-1.55-4.67-3.71-6.17-6.49-1.5-2.78-2.24-5.93-2.24-9.45s.74-6.67,2.24-9.45c1.49-2.78,3.55-4.94,6.17-6.49,2.62-1.55,5.63-2.32,9.05-2.32s6.41.78,8.97,2.32c2.56,1.55,4.62,3.71,6.17,6.49,1.55,2.78,2.32,5.93,2.32,9.45s-.78,6.68-2.32,9.45Z"/>
      <path class="cls-2" d="M313.98,326.19c-8.45,0-15.08,2.51-19.95,7.54-.02.02-.04.04-.06.06v-6h-24.68v77.87h24.68v-42.62c0-5.03,1.19-8.77,3.6-11.29,2.41-2.51,5.7-3.77,9.86-3.77,2.02,0,3.83.32,5.44.95,1.58.65,2.86,1.47,3.83,2.56l8.82-22.86c-.54-.28-1.11-.52-1.67-.76-2.84-1.13-6.13-1.69-9.86-1.69Z"/>
      <rect class="cls-2" x="542.93" y="327.8" width="24.67" height="77.86"/>
      <polygon class="cls-2" points="374.87 295.6 350.19 295.6 350.19 327.8 332.73 327.8 332.73 348.79 350.19 348.79 350.19 405.67 374.87 405.67 374.87 348.79 392.49 348.79 392.49 327.8 374.87 327.8 374.87 295.6"/>
      <path class="cls-2" d="M555.27,290.15c-3.74,0-6.89,1.28-9.45,3.84-2.56,2.56-3.84,5.77-3.84,9.61s1.28,6.94,3.84,9.61c2.56,2.67,5.71,4.01,9.45,4.01,3.95,0,7.13-1.33,9.53-4.01,2.4-2.67,3.61-5.87,3.61-9.61s-1.2-7.05-3.61-9.61c-2.4-2.56-5.58-3.84-9.53-3.84Z"/>
      <path class="cls-2" d="M635.13,327.8v6.31c-2.05-1.94-4.42-3.57-7.13-4.87-4.22-2.03-8.95-3.04-14.18-3.04-7.16,0-13.56,1.74-19.22,5.21-5.66,3.47-10.09,8.28-13.3,14.42-3.2,6.14-4.81,13.11-4.81,20.91s1.6,14.71,4.81,20.75c3.2,6.04,7.61,10.84,13.22,14.42,5.61,3.58,12.04,5.37,19.3,5.37,5.13,0,9.83-1.02,14.1-3.04,2.75-1.3,5.15-2.93,7.21-4.88v39.16h24.35v-110.71h-24.35ZM618.79,385c-3.31,0-6.3-.77-8.97-2.32-2.67-1.55-4.72-3.71-6.17-6.49-1.44-2.78-2.16-5.93-2.16-9.45s.74-6.67,2.24-9.45c1.49-2.78,3.55-4.94,6.17-6.49,2.62-1.55,5.63-2.32,9.05-2.32s6.41.78,8.97,2.32c2.56,1.55,4.59,3.68,6.09,6.41,1.5,2.72,2.24,5.85,2.24,9.37,0,5.45-1.63,9.88-4.89,13.3-3.26,3.42-7.45,5.13-12.58,5.13Z"/>
      <rect class="cls-2" x="504.4" y="289.35" width="24.67" height="116.31"/>
      <path class="cls-2" d="M474.94,381.72c-4.29,1.76-9.29,2.64-15.06,2.64-4.92,0-9.4-.84-13.48-2.49-4.05-1.65-7.58-4.05-10.57-7.21-2.99-3.14-5.29-6.89-6.89-11.2-1.6-4.33-2.4-9.16-2.4-14.52s.8-9.88,2.4-14.26c1.6-4.38,3.9-8.1,6.89-11.2,2.99-3.1,6.52-5.48,10.57-7.13,4.07-1.67,8.56-2.49,13.48-2.49,5.55,0,10.42.91,14.65,2.73,4.23,1.82,7.78,4.31,10.66,7.52l9.06-23.49c-3.23-2.12-6.69-3.96-10.42-5.5-7-2.88-14.97-4.33-23.94-4.33s-16.4,1.47-23.55,4.4c-7.17,2.95-13.45,7.04-18.83,12.26-5.4,5.24-9.6,11.4-12.59,18.5s-4.48,14.78-4.48,22.99,1.49,15.9,4.48,22.99c2.99,7.11,7.19,13.35,12.59,18.68,5.37,5.35,11.68,9.49,18.89,12.41,7.21,2.95,15.04,4.4,23.49,4.4,9.27,0,17.46-1.41,24.5-4.25,3.57-1.43,6.93-3.16,10.07-5.2l-9.04-23.46c-2.9,3.12-6.39,5.5-10.49,7.21Z"/>
    </g>
    <path class="cls-1" d="M363.79,57.7l5.68-14.76c1.75-4.44,2.05-9.38.91-14.09-4.3-17.52-20.21-28.85-40.59-28.85-1.04,0-2.02.03-3.06.1-.37,0-.74.03-1.14.03h-.03l-99.9,10.63-57.8,150.14s93.91-10.29,106.26-11c8.81.34,14.86,4.51,16.34,10.79l-5.28,13.82c-2.62,6.86-1.92,14.49,1.92,20.81,7.3,12.07,20.85,18.96,37.32,18.96,1.95,0,3.9-.03,6.08-.3l99.66-10.32,61.47-159.55-127.84,13.58ZM304,127.91c-.13-.07-.23-.17-.37-.27-.34-.27-.61-.4-.98-.61-2.66-1.65-6.12-2.62-10.15-2.76-.27,0-.5-.07-.77,0h-.17c-.24-.07-.5-.07-.77-.07-.47,0-.91,0-1.41.07h-.34l-85.21,9.05,10.59-27.54,61.4-6.46.03-.07h.27l-43.75-40.08,10.19-26.46.27-.03,85.17-9.01c10.46-.57,17.69,3.83,19.37,10.79l-9.92,25.79-.1.27-.57,1.45c-.13-.47-.27-.87-.44-1.35-.03-.1-.07-.13-.13-.24-2.49-6.09-9.55-9.85-19.37-9.25l-48.29,5.11h-.07l-.27.07,42.47,39.07.2.17h.03l2.19,2.02c3.23,2.99,5.28,6.39,6.22,9.85l-10.25,26.73c-.44-1.18-1.08-2.22-1.78-3.13-.91-1.24-1.98-2.25-3.3-3.13ZM365.1,108.07l-21.05,54.71,79.89-8.51-10.32,26.9-.23.5-79.56,8.24h-.23l-5.51.57c-10.15.98-17.59-2.05-20.88-7.46l40.95-106.36c3.36,3.8,9.55,5.78,17.49,5.01l89.98-9.92h.1l-10.73,27.84-79.89,8.47Z"/>
  </g>
</svg>