<?xml version="1.0" encoding="UTF-8"?>
<svg id="Layer_2" data-name="Layer 2" xmlns="http://www.w3.org/2000/svg" viewBox="0 0 323.77 214.29">
  <defs>
    <style>
      .cls-1 {
        fill: #0539f5;
      }
    </style>
  </defs>
  <g id="Layer_1-2" data-name="Layer 1">
    <path class="cls-1" d="M195.93,57.7l5.68-14.76c1.75-4.44,2.05-9.38.91-14.09C198.22,11.33,182.31,0,161.94,0c-1.04,0-2.02.03-3.06.1-.37,0-.74.03-1.14.03h-.03L57.8,10.76,0,160.9s93.91-10.29,106.26-11c8.81.34,14.86,4.51,16.34,10.79l-5.28,13.82c-2.62,6.86-1.92,14.49,1.92,20.81,7.3,12.07,20.85,18.96,37.32,18.96,1.95,0,3.9-.03,6.08-.3l99.66-10.32,61.47-159.55-127.84,13.58ZM136.15,127.91c-.13-.07-.23-.17-.37-.27-.34-.27-.61-.4-.98-.61-2.66-1.65-6.12-2.62-10.15-2.76-.27,0-.5-.07-.77,0h-.17c-.24-.07-.5-.07-.77-.07-.47,0-.91,0-1.41.07h-.34l-85.21,9.05,10.59-27.54,61.4-6.46.03-.07h.27l-43.75-40.08,10.19-26.46.27-.03,85.17-9.01c10.46-.57,17.69,3.83,19.37,10.79l-9.92,25.79-.1.27-.57,1.45c-.13-.47-.27-.87-.44-1.35-.03-.1-.07-.13-.13-.24-2.49-6.09-9.55-9.85-19.37-9.25l-48.29,5.11h-.07l-.27.07,42.47,39.07.2.17h.03l2.19,2.02c3.23,2.99,5.28,6.39,6.22,9.85l-10.25,26.73c-.44-1.18-1.08-2.22-1.78-3.13-.91-1.24-1.98-2.25-3.3-3.13ZM197.24,108.07l-21.05,54.71,79.89-8.51-10.32,26.9-.23.5-79.56,8.24h-.23l-5.51.57c-10.15.98-17.59-2.05-20.88-7.46l40.95-106.36c3.36,3.8,9.55,5.78,17.49,5.01l89.98-9.92h.1l-10.73,27.84-79.89,8.47Z"/>
  </g>
</svg>